PathFileType	4	(X/Y/Z)	/Users/itak/Documents/Research/Walk-IL/dataset/trc/00480_00167.trc
DataRate	CameraRate	NumFrames	NumMarkers	Units	OrigDataRate	OrigDataStartFrame	OrigNumFrames
100.000000	100.000000	4	53	mm	100.000000	459	613
Frame#	Time	RPSI			LPSI			L3			STRN			T10			C7			CLAV			RBAK			LBAK			LSHO			LUPA			LAEL			LAOL			LWTS			LWPS			LFRA			LIFD			LHPS			LHTS			RSHO			RUPA			RAEL			RAOL			RWTS			RWPS			RFRA			RIFD			RHTS			RHPS			RBHD			LFHD			RFHD			LBHD			LHIP			RHIP			RASI			LASI			LKNE			LTHI			LANK			LTIP			LTOE			LMT1			LMT5			LHEE			RKNE			RTHI			RANK			RTIP			RTOE			RMT1			RMT5			RHEE			
		X1	Y1	Z1	X2	Y2	Z2	X3	Y3	Z3	X4	Y4	Z4	X5	Y5	Z5	X6	Y6	Z6	X7	Y7	Z7	X8	Y8	Z8	X9	Y9	Z9	X10	Y10	Z10	X11	Y11	Z11	X12	Y12	Z12	X13	Y13	Z13	X14	Y14	Z14	X15	Y15	Z15	X16	Y16	Z16	X17	Y17	Z17	X18	Y18	Z18	X19	Y19	Z19	X20	Y20	Z20	X21	Y21	Z21	X22	Y22	Z22	X23	Y23	Z23	X24	Y24	Z24	X25	Y25	Z25	X26	Y26	Z26	X27	Y27	Z27	X28	Y28	Z28	X29	Y29	Z29	X30	Y30	Z30	X31	Y31	Z31	X32	Y32	Z32	X33	Y33	Z33	X34	Y34	Z34	X35	Y35	Z35	X36	Y36	Z36	X37	Y37	Z37	X38	Y38	Z38	X39	Y39	Z39	X40	Y40	Z40	X41	Y41	Z41	X42	Y42	Z42	X43	Y43	Z43	X44	Y44	Z44	X45	Y45	Z45	X46	Y46	Z46	X47	Y47	Z47	X48	Y48	Z48	X49	Y49	Z49	X50	Y50	Z50	X51	Y51	Z51	X52	Y52	Z52	X53	Y53	Z53	

460	4.59	-206.9593048095703	912.130615234375	-570.0696411132812	-234.5815734863281	891.5375366210938	-433.2156982421875	-216.9942626953125	997.160888671875	-534.5474853515625	-486.8988647460938	1205.730224609375	-574.7574462890625	-202.9297485351562	1122.075073242188	-540.62255859375	-258.8919372558594	1394.94189453125	-575.99462890625	-443.0191345214844	1316.164916992188	-569.8305053710938	-190.8204650878906	1265.8720703125	-654.5095825195312	-229.6668548583984	1346.146606445312	-477.3785705566406	-329.8968811035156	1371.046875	-400.6383666992188	-311.4997253417969	1257.756469726562	-299.2060241699219	-320.6471557617188	1046.360961914062	-251.25244140625	-250.0107727050781	1025.198852539062	-324.1051635742188	-429.9148254394531	859.3028564453125	-282.4558410644531	-378.8038024902344	833.6592407226562	-234.5832672119141	-349.1287841796875	961.3516235351562	-236.9580535888672	-464.51025390625	705.5654296875	-276.0045166015625	-399.7732543945312	758.9571533203125	-234.6272888183594	-459.8229064941406	780.977783203125	-271.4388732910156	-308.018798828125	1358.69384765625	-735.858642578125	-279.4474182128906	1297.614990234375	-807.3422241210938	-274.7115478515625	1010.953796386719	-865.6666259765625	-230.6327362060547	989.1119995117188	-819.0966186523438	-409.9480285644531	825.95361328125	-832.7275390625	-340.0610656738281	798.7396850585938	-879.4342041015625	-283.9274597167969	953.3663330078125	-875.253662109375	-439.5091857910156	673.4530029296875	-844.3960571289062	-440.7535095214844	734.1287231445312	-846.6195678710938	-371.4576721191406	716.3512573242188	-879.3101196289062	-411.4066772460938	1591.623901367188	-662.9241333007812	-510.9487915039062	1565.4765625	-483.6501159667969	-537.3807373046875	1565.688232421875	-611.5487670898438	-362.4956970214844	1600.62109375	-492.7575073242188	-406.8639526367188	810.3663330078125	-348.6733093261719	-281.7433776855469	822.3873901367188	-738.8132934570312	-404.5401916503906	850.450927734375	-700.7391967773438	-471.4667663574219	857.9503173828125	-452.9609069824219	-609.4580688476562	446.7702026367188	-386.3687438964844	-557.3364868164062	588.375	-366.9097595214844	-658.25537109375	38.8707160949707	-369.7208862304688	-650.3377075195312	300.5715637207031	-369.776123046875	-878.3030395507812	81.07077789306641	-455.4989013671875	-804.2303466796875	67.18855285644531	-479.8208923339844	-804.859375	68.46651458740234	-368.3726196289062	-609.0845947265625	36.85675048828125	-430.7052001953125	-218.8946228027344	444.4644775390625	-707.5462646484375	-303.8070068359375	687.6887817382812	-749.3795166015625	0.6501678228378296	56.20037078857422	-681.9312133789062	-156.9107360839844	307.9516906738281	-708.66552734375	-206.3459014892578	41.24699783325195	-614.0805053710938	-143.0894622802734	52.44552612304688	-592.7584228515625	-127.6044692993164	42.33383560180664	-699.592529296875	66.33171081542969	74.68086242675781	-639.1063842773438	
461	4.600000000000001	-216.8897094726562	911.2938842773438	-567.7730712890625	-244.6253051757812	891.23486328125	-430.6217346191406	-227.6593780517578	996.1941528320312	-532.2640380859375	-496.8875122070312	1205.399658203125	-572.0892333984375	-213.032958984375	1121.146728515625	-538.3477172851562	-268.2302551269531	1394.229614257812	-573.26171875	-452.7622680664062	1315.7578125	-567.1577758789062	-200.4579467773438	1264.868286132812	-651.6422119140625	-239.1294097900391	1345.258056640625	-474.7030334472656	-339.2444152832031	1370.268676757812	-397.9185791015625	-320.9139404296875	1256.645385742188	-296.7407836914062	-329.8423767089844	1045.321044921875	-248.68994140625	-259.7056274414062	1024.3291015625	-322.0659484863281	-437.3249816894531	856.9140014648438	-278.2656555175781	-385.3157653808594	832.0789794921875	-230.9091033935547	-357.3755493164062	960.0743408203125	-234.0121765136719	-469.9614868164062	702.7493896484375	-270.6413269042969	-405.225830078125	757.1375122070312	-230.5399475097656	-466.052001953125	778.23291015625	-266.6129760742188	-317.4235229492188	1358.090576171875	-733.1349487304688	-288.9692993164062	1296.658203125	-804.4609375	-286.1109313964844	1010.120971679688	-862.9904174804688	-242.0969696044922	987.801513671875	-816.5773315429688	-423.4986267089844	826.9885864257812	-829.4611206054688	-354.36376953125	798.8953857421875	-876.738037109375	-296.01904296875	952.6763305664062	-872.572021484375	-455.4677124023438	675.1380004882812	-841.124755859375	-455.748046875	735.7194213867188	-843.2381591796875	-386.9980163574219	716.950439453125	-876.546875	-419.1918334960938	1591.745727539062	-660.4156494140625	-519.734375	1566.058959960938	-481.3396911621094	-545.7008666992188	1566.411987304688	-609.3330688476562	-371.0654296875	1600.391845703125	-489.9352722167969	-417.550537109375	810.4057006835938	-346.4356384277344	-291.3536071777344	821.426025390625	-736.7398071289062	-414.079833984375	849.437744140625	-698.5545043945312	-481.528076171875	857.6571044921875	-450.9966735839844	-619.7220458984375	446.7238464355469	-386.0276489257812	-568.1077270507812	588.2901611328125	-366.2023010253906	-660.5930786132812	38.99645614624023	-369.7596435546875	-659.099365234375	299.702392578125	-369.7804260253906	-882.94580078125	72.18723297119141	-455.1179809570312	-808.240478515625	61.4732666015625	-479.5751037597656	-808.6627807617188	62.8280029296875	-367.9815063476562	-611.4161376953125	38.99433135986328	-430.9632568359375	-226.5368499755859	444.5668334960938	-706.981689453125	-313.067138671875	687.016845703125	-747.6221313476562	-0.5428450703620911	59.07893753051758	-682.9025268554688	-162.330322265625	309.1271667480469	-708.7451171875	-206.3993530273438	41.22039031982422	-614.03515625	-143.5432586669922	52.81108474731445	-593.04833984375	-128.0278472900391	42.23432922363281	-699.8385009765625	64.85823059082031	79.54051208496094	-640.4435424804688	
462	4.61	-226.6252136230469	910.647216796875	-565.667724609375	-254.3829040527344	891.359619140625	-428.192138671875	-238.3686065673828	995.6104736328125	-530.12939453125	-506.9341125488281	1205.301147460938	-569.3462524414062	-223.1109466552734	1120.6337890625	-536.2305908203125	-277.7704467773438	1393.841064453125	-570.5135498046875	-462.6230163574219	1315.608520507812	-564.4651489257812	-210.2413940429688	1264.250610351562	-648.79443359375	-248.7312774658203	1344.749633789062	-471.970947265625	-348.8101196289062	1369.794799804688	-395.1748962402344	-330.6524963378906	1255.800903320312	-294.2651672363281	-339.4349365234375	1044.570678710938	-246.1573486328125	-269.6803894042969	1023.744140625	-319.9440002441406	-444.9088745117188	854.75830078125	-274.1163024902344	-392.0508117675781	830.8118896484375	-227.2278747558594	-365.9580078125	959.0990600585938	-231.0967407226562	-475.4681701660156	700.1622924804688	-265.2192687988281	-410.8099365234375	755.6381225585938	-226.4457702636719	-472.3840637207031	775.702392578125	-261.8282470703125	-327.0574340820312	1357.821899414062	-730.4107666015625	-298.7082214355469	1296.012451171875	-801.550048828125	-297.5041809082031	1009.628662109375	-860.1779174804688	-253.6172332763672	986.8602905273438	-813.8588256835938	-436.7820129394531	828.1500854492188	-826.2124633789062	-368.2994689941406	799.32470703125	-873.9609375	-308.0426635742188	952.2953491210938	-869.7531127929688	-470.7831420898438	676.900390625	-837.9929809570312	-470.2720947265625	737.3814697265625	-839.9479370117188	-401.97607421875	717.7955932617188	-873.7807006835938	-427.1792602539062	1592.16796875	-657.773193359375	-528.6558227539062	1566.912841796875	-478.8940734863281	-554.18115234375	1567.460327148438	-606.9718017578125	-379.7691650390625	1600.4033203125	-487.0000305175781	-427.9209899902344	810.9986572265625	-344.2163391113281	-300.98486328125	820.5512084960938	-734.6725463867188	-423.5833740234375	848.6531982421875	-696.2484130859375	-491.3460998535156	857.8805541992188	-449.0030212402344	-630.385498046875	447.3584899902344	-385.6515197753906	-579.2456665039062	589.1530151367188	-365.5647888183594	-662.7379760742188	39.36785507202148	-369.6513366699219	-667.9160766601562	299.3779296875	-369.5276794433594	-887.1365966796875	64.11125183105469	-454.6326904296875	-811.71630859375	56.74199295043945	-479.220947265625	-812.1412353515625	57.96452331542969	-367.4031677246094	-613.5814819335938	41.13362121582031	-431.0276794433594	-234.6754302978516	444.7248840332031	-706.467529296875	-322.4877014160156	686.4627075195312	-745.8172607421875	-1.930832624435425	62.42535781860352	-683.9909057617188	-168.1832275390625	310.4454040527344	-708.914794921875	-206.4681854248047	41.20849609375	-614.01318359375	-144.1039428710938	53.22867965698242	-593.3236083984375	-128.5536346435547	42.14388656616211	-700.0505981445312	63.06911087036133	84.77842712402344	-641.8389282226562	
463	4.62	-236.1411590576172	910.239990234375	-563.7623291015625	-263.8193054199219	891.8995361328125	-425.9793701171875	-249.0345153808594	995.4258422851562	-528.1685791015625	-517.0079345703125	1205.450073242188	-566.5247192382812	-233.1040954589844	1120.549682617188	-534.27783203125	-287.4914245605469	1393.781127929688	-567.7740478515625	-472.5796813964844	1315.73046875	-561.744873046875	-220.1707611083984	1264.046875	-646.0321655273438	-258.444091796875	1344.629760742188	-469.2085571289062	-358.5630493164062	1369.656494140625	-392.4238586425781	-340.6994323730469	1255.27734375	-291.7850036621094	-349.4337463378906	1044.16162109375	-243.6765289306641	-279.9062805175781	1023.497192382812	-317.7336730957031	-452.6632690429688	852.8750610351562	-270.0534973144531	-399.0368041992188	829.911376953125	-223.5448150634766	-374.8896789550781	958.4829711914062	-228.2279205322266	-480.9928894042969	697.8428344726562	-259.7794189453125	-416.5346069335938	754.5087890625	-222.3499450683594	-478.7943115234375	773.411865234375	-257.1520690917969	-336.9368591308594	1357.906616210938	-727.6967163085938	-308.7013549804688	1295.726440429688	-798.6467895507812	-308.8536071777344	1009.505798339844	-857.240478515625	-265.1511840820312	986.3307495117188	-810.9429321289062	-449.7846374511719	829.4605712890625	-823.0007934570312	-381.8282470703125	800.0260620117188	-871.0922241210938	-319.9541320800781	952.2523193359375	-866.80517578125	-485.4530639648438	678.7291870117188	-835.005615234375	-484.3091735839844	739.1228637695312	-836.7767333984375	-416.359619140625	718.8826904296875	-870.9963989257812	-435.38818359375	1592.860961914062	-654.9925537109375	-537.7010498046875	1568.019287109375	-476.3180236816406	-562.8171997070312	1568.814453125	-604.46630859375	-388.5937805175781	1600.631469726562	-483.9669189453125	-437.9265441894531	812.134765625	-342.0483703613281	-310.5961608886719	819.8095703125	-732.5907592773438	-433.0464477539062	848.1318359375	-693.834228515625	-500.8983154296875	858.647705078125	-446.9690246582031	-641.3114624023438	448.5524597167969	-385.2472534179688	-590.7212524414062	590.9947509765625	-365.0105895996094	-664.5404663085938	39.83145141601562	-369.4632873535156	-676.536865234375	299.4233703613281	-369.0392456054688	-890.6709594726562	57.2386360168457	-454.1182250976562	-814.5020141601562	53.14383697509766	-478.822998046875	-815.0909423828125	54.03272247314453	-366.7221069335938	-615.425048828125	43.03456878662109	-430.9480285644531	-243.3445434570312	444.92578125	-706.0392456054688	-332.0321350097656	686.0458374023438	-743.9841918945312	-3.531286716461182	66.18054962158203	-685.2028198242188	-174.5052185058594	311.9041748046875	-709.2129516601562	-206.5369110107422	41.21692657470703	-614.0270385742188	-144.7862701416016	53.70389938354492	-593.5702514648438	-129.1892700195312	42.07349014282227	-700.2267456054688	60.89571380615234	90.3980712890625	-643.2959594726562	
